<svg width="395" height="106" viewBox="0 0 395 106" fill="none" xmlns="http://www.w3.org/2000/svg">
<path fill-rule="evenodd" clip-rule="evenodd" d="M14.0414 0.340698C6.28657 0.340698 0 6.62725 0 14.3821V91.1214C0 98.8763 6.28655 105.163 14.0414 105.163H90.7807C98.5356 105.163 104.822 98.8763 104.822 91.1214V14.3821C104.822 6.62727 98.5356 0.340698 90.7807 0.340698H14.0414ZM45.3921 64.9788L45.426 65.0579C46.098 66.664 47.3054 67.9877 48.8431 68.8038C50.3807 69.62 52.1536 69.8783 53.8602 69.5347C55.5667 69.1911 57.1016 68.267 58.2037 66.9193C59.3059 65.5717 59.9072 63.8838 59.9054 62.1428C59.9062 60.4153 59.3131 58.74 58.2257 57.3977C57.1383 56.0555 55.6226 55.1279 53.9326 54.7703C52.2427 54.4128 50.4812 54.6471 48.9435 55.4339C47.4057 56.2208 46.1851 57.5123 45.4863 59.0922C42.0171 57.8688 38.9362 55.7436 36.5602 52.9351C34.1842 50.1265 32.5989 46.7358 31.9671 43.1115C31.3353 39.4872 31.6798 35.76 32.9653 32.313C34.2508 28.866 36.4308 25.8235 39.2814 23.4982C42.132 21.1729 45.5503 19.6487 49.1849 19.0822C52.8196 18.5157 56.5395 18.9273 59.9624 20.2749C63.3852 21.6224 66.3876 23.8571 68.6609 26.7495C70.9343 29.6418 72.3965 33.0874 72.8974 36.7321C73.1045 38.2762 74.351 39.5492 75.91 39.5492C77.469 39.5492 78.7494 38.28 78.5837 36.7283C77.8634 30.0182 74.5975 23.8398 69.4588 19.4658C64.32 15.0919 57.6998 12.8553 50.9616 13.2169C44.2234 13.5785 37.8804 16.5106 33.2392 21.4094C28.5979 26.3082 26.0118 32.8005 26.0134 39.5492C26.0119 45.0481 27.7297 50.4099 30.9263 54.8839C34.123 59.358 38.6384 62.7204 43.8406 64.5005L43.8783 64.5155C44.3782 64.6851 44.883 64.8396 45.3921 64.9788ZM29.7566 62.2031C33.0933 65.5387 37.126 68.0955 41.5661 69.6904C43.1715 71.9907 45.4689 73.715 48.124 74.6196C50.7792 75.5241 53.6536 75.5579 56.3293 74.716C59.0049 73.8742 61.3423 72.2006 63.0013 69.9386C64.6604 67.6767 65.5547 64.9443 65.5541 62.1391H74.0459C76.2918 62.1411 78.445 63.0347 80.0324 64.6237C81.6198 66.2127 82.5114 68.3669 82.5114 70.6131V74.0705C82.511 76.2302 81.8356 78.3358 80.5796 80.0927C74.7614 88.239 65.2528 92.2765 52.3739 92.2765C39.4949 92.2765 29.9901 88.2428 24.1833 80.0927C22.933 78.3376 22.2627 76.2361 22.2627 74.0818V70.6168C22.2636 68.5396 23.0273 66.535 24.4089 64.9838C25.7904 63.4327 27.6935 62.4431 29.7566 62.2031ZM66.0235 33.1777C66.9545 35.1727 67.437 37.3476 67.437 39.5492C67.4377 42.0114 66.8349 44.4362 65.6814 46.6115C64.5279 48.7867 62.859 50.646 60.8205 52.0267C58.5309 50.1135 55.5861 48.9648 52.3739 48.9648C49.288 48.9655 46.3001 50.049 43.931 52.0267C42.2407 50.8807 40.8011 49.403 39.6996 47.6833C38.5981 45.9636 37.8577 44.0378 37.5234 42.0231C37.1891 40.0083 37.268 37.9466 37.7551 35.9633C38.2422 33.98 39.1275 32.1164 40.3571 30.4858C41.5867 28.8553 43.135 27.4918 44.9078 26.4782C46.6806 25.4647 48.641 24.8222 50.6698 24.5899C52.6986 24.3576 54.7535 24.5402 56.7095 25.1268C58.6655 25.7134 60.4819 26.6915 62.0482 28.0019C63.7355 29.4159 65.0925 31.1826 66.0235 33.1777Z" fill="white"/>
<path d="M126.424 42.1891L142.283 20.6872L127.256 0.61084H137.532L147.392 14.2723L157.192 0.61084H167.112L152.322 20.6872L168.359 42.1891H158.083L147.213 27.1021L136.344 42.1891H126.424Z" fill="white"/>
<path d="M171.4 54.3062V11.243H179.418V13.7971C181.953 11.8172 184.883 10.8272 188.209 10.8272C191.14 10.8272 193.793 11.54 196.169 12.9655C198.545 14.3911 200.425 16.3116 201.811 18.7271C203.237 21.103 203.95 23.7759 203.95 26.7457C203.95 29.7156 203.237 32.4083 201.811 34.8238C200.386 37.1997 198.465 39.1004 196.05 40.526C193.634 41.9119 190.942 42.6049 187.972 42.6049C186.427 42.6049 184.942 42.4069 183.517 42.0109C182.091 41.5753 180.765 40.9616 179.537 40.1696V54.3062H171.4ZM186.903 35.7148C188.605 35.7148 190.13 35.3188 191.476 34.5268C192.862 33.7349 193.951 32.6657 194.743 31.3194C195.535 29.973 195.931 28.4485 195.931 26.7457C195.931 25.043 195.535 23.5185 194.743 22.1721C193.951 20.7862 192.862 19.717 191.476 18.9647C190.13 18.1727 188.605 17.7767 186.903 17.7767C185.398 17.7767 184.012 18.0341 182.745 18.5489C181.517 19.0241 180.448 19.7566 179.537 20.7466V32.8043C180.408 33.7151 181.478 34.4278 182.745 34.9426C184.052 35.4574 185.437 35.7148 186.903 35.7148Z" fill="white"/>
<path d="M224.018 42.7831C220.929 42.7831 218.118 42.0703 215.583 40.6448C213.089 39.2192 211.109 37.2987 209.643 34.8832C208.178 32.4677 207.446 29.7552 207.446 26.7457C207.446 23.7363 208.139 21.0238 209.525 18.6083C210.95 16.1928 212.871 14.2723 215.286 12.8467C217.702 11.4212 220.394 10.7084 223.364 10.7084C226.334 10.7084 228.967 11.441 231.264 12.9061C233.561 14.3713 235.363 16.3512 236.669 18.8459C238.016 21.3406 238.689 24.1719 238.689 27.3397V29.478H215.761C216.118 30.7056 216.692 31.8143 217.484 32.8043C218.316 33.7943 219.325 34.5664 220.513 35.1208C221.741 35.6752 223.048 35.9524 224.433 35.9524C225.819 35.9524 227.087 35.7346 228.235 35.299C229.423 34.8634 230.433 34.2496 231.264 33.4577L236.61 38.3283C234.709 39.8726 232.749 41.0011 230.73 41.7139C228.75 42.4267 226.512 42.7831 224.018 42.7831ZM215.643 23.6571H230.67C230.393 22.4295 229.878 21.3604 229.126 20.4496C228.413 19.4993 227.542 18.7667 226.512 18.2519C225.522 17.6975 224.414 17.4203 223.186 17.4203C221.919 17.4203 220.771 17.6777 219.741 18.1925C218.712 18.7073 217.84 19.4399 217.128 20.3902C216.454 21.301 215.959 22.3899 215.643 23.6571Z" fill="white"/>
<path d="M243.675 42.1891V11.243H251.812V14.6881C252.802 13.3417 253.99 12.3122 255.376 11.5994C256.762 10.8866 258.326 10.5302 260.068 10.5302C261.573 10.5698 262.702 10.8074 263.454 11.243V18.3707C262.86 18.0935 262.207 17.8955 261.494 17.7767C260.781 17.6183 260.048 17.5391 259.296 17.5391C257.712 17.5391 256.267 17.9351 254.96 18.7271C253.653 19.519 252.604 20.6476 251.812 22.1127V42.1891H243.675Z" fill="white"/>
<path d="M282.592 42.6643C279.147 42.6643 276.533 41.8921 274.752 40.3478C273.009 38.7638 272.138 36.4671 272.138 33.4577V18.0143H265.782V11.243H272.138V3.34313L280.275 1.5018V11.243H289.126V18.0143H280.275V31.7945C280.275 33.2201 280.592 34.2496 281.226 34.8832C281.859 35.4772 282.968 35.7742 284.552 35.7742C285.344 35.7742 286.057 35.7346 286.69 35.6554C287.364 35.5366 288.096 35.3386 288.888 35.0614V41.7733C288.057 42.0505 287.007 42.2683 285.74 42.4267C284.512 42.5851 283.463 42.6643 282.592 42.6643Z" fill="white"/>
<path d="M126.424 104.18L147.229 54.3062H151.29L172.023 104.18H168.461L161.55 87.2943H136.827L129.844 104.18H126.424ZM138.038 84.3731H160.339L149.224 57.3698L138.038 84.3731Z" fill="white"/>
<path d="M188.753 104.893C186.046 104.893 183.457 104.418 180.987 103.468C178.564 102.47 176.522 101.045 174.86 99.1928L177.282 97.1979C178.707 98.6703 180.417 99.8341 182.412 100.689C184.454 101.544 186.568 101.972 188.753 101.972C191.983 101.972 194.572 101.283 196.519 99.9053C198.514 98.4803 199.512 96.6516 199.512 94.4192C199.512 92.7567 198.918 91.3792 197.73 90.2867C196.543 89.1943 194.619 88.4818 191.959 88.1493L186.188 87.4368C182.863 87.0568 180.322 86.0831 178.564 84.5156C176.854 82.9481 175.999 80.8582 175.999 78.2457C175.999 76.2983 176.522 74.5883 177.567 73.1158C178.612 71.6433 180.061 70.5034 181.913 69.6959C183.813 68.8409 185.998 68.4134 188.468 68.4134C190.843 68.4134 193.123 68.7696 195.308 69.4821C197.493 70.1946 199.702 71.3583 201.934 72.9733L200.082 75.5383C198.087 74.1133 196.163 73.0683 194.31 72.4033C192.505 71.6908 190.582 71.3346 188.539 71.3346C185.784 71.3346 183.528 71.9283 181.771 73.1158C180.013 74.2558 179.134 75.9658 179.134 78.2457C179.134 79.9557 179.704 81.3332 180.844 82.3781C182.032 83.4231 183.932 84.1119 186.544 84.4444L192.244 85.1568C195.759 85.5843 198.372 86.6056 200.082 88.2205C201.792 89.8355 202.646 91.9017 202.646 94.4192C202.646 96.4141 202.053 98.2191 200.865 99.8341C199.678 101.402 198.039 102.637 195.949 103.539C193.907 104.441 191.508 104.893 188.753 104.893Z" fill="white"/>
<path d="M218.881 104.893C216.173 104.893 213.584 104.418 211.115 103.468C208.692 102.47 206.65 101.045 204.987 99.1928L207.41 97.1979C208.835 98.6703 210.545 99.8341 212.539 100.689C214.582 101.544 216.696 101.972 218.881 101.972C222.111 101.972 224.699 101.283 226.647 99.9053C228.642 98.4803 229.639 96.6516 229.639 94.4192C229.639 92.7567 229.045 91.3792 227.858 90.2867C226.67 89.1943 224.747 88.4818 222.087 88.1493L216.316 87.4368C212.991 87.0568 210.45 86.0831 208.692 84.5156C206.982 82.9481 206.127 80.8582 206.127 78.2457C206.127 76.2983 206.65 74.5883 207.695 73.1158C208.74 71.6433 210.188 70.5034 212.041 69.6959C213.941 68.8409 216.126 68.4134 218.596 68.4134C220.971 68.4134 223.251 68.7696 225.436 69.4821C227.62 70.1946 229.829 71.3583 232.062 72.9733L230.209 75.5383C228.214 74.1133 226.29 73.0683 224.438 72.4033C222.633 71.6908 220.709 71.3346 218.667 71.3346C215.912 71.3346 213.656 71.9283 211.898 73.1158C210.141 74.2558 209.262 75.9658 209.262 78.2457C209.262 79.9557 209.832 81.3332 210.972 82.3781C212.16 83.4231 214.059 84.1119 216.672 84.4444L222.372 85.1568C225.887 85.5843 228.499 86.6056 230.209 88.2205C231.919 89.8355 232.774 91.9017 232.774 94.4192C232.774 96.4141 232.18 98.2191 230.993 99.8341C229.805 101.402 228.167 102.637 226.077 103.539C224.034 104.441 221.636 104.893 218.881 104.893Z" fill="white"/>
<path d="M239.033 104.18V69.1259H242.168V104.18H239.033ZM240.601 61.2173C239.841 61.2173 239.2 60.956 238.677 60.4335C238.155 59.9111 237.893 59.2698 237.893 58.5098C237.893 57.7498 238.155 57.1086 238.677 56.5861C239.2 56.0636 239.841 55.8024 240.601 55.8024C241.408 55.8024 242.05 56.0636 242.525 56.5861C243.047 57.1086 243.308 57.7498 243.308 58.5098C243.308 59.2698 243.047 59.9111 242.525 60.4335C242.05 60.956 241.408 61.2173 240.601 61.2173Z" fill="white"/>
<path d="M261.811 104.893C259.103 104.893 256.515 104.418 254.045 103.468C251.622 102.47 249.58 101.045 247.917 99.1928L250.34 97.1979C251.765 98.6703 253.475 99.8341 255.47 100.689C257.512 101.544 259.626 101.972 261.811 101.972C265.041 101.972 267.629 101.283 269.577 99.9053C271.572 98.4803 272.569 96.6516 272.569 94.4192C272.569 92.7567 271.976 91.3792 270.788 90.2867C269.601 89.1943 267.677 88.4818 265.017 88.1493L259.246 87.4368C255.921 87.0568 253.38 86.0831 251.622 84.5156C249.912 82.9481 249.057 80.8582 249.057 78.2457C249.057 76.2983 249.58 74.5883 250.625 73.1158C251.67 71.6433 253.118 70.5034 254.971 69.6959C256.871 68.8409 259.056 68.4134 261.526 68.4134C263.901 68.4134 266.181 68.7696 268.366 69.4821C270.551 70.1946 272.759 71.3583 274.992 72.9733L273.139 75.5383C271.144 74.1133 269.221 73.0683 267.368 72.4033C265.563 71.6908 263.639 71.3346 261.597 71.3346C258.842 71.3346 256.586 71.9283 254.828 73.1158C253.071 74.2558 252.192 75.9658 252.192 78.2457C252.192 79.9557 252.762 81.3332 253.902 82.3781C255.09 83.4231 256.99 84.1119 259.602 84.4444L265.302 85.1568C268.817 85.5843 271.429 86.6056 273.139 88.2205C274.849 89.8355 275.704 91.9017 275.704 94.4192C275.704 96.4141 275.111 98.2191 273.923 99.8341C272.736 101.402 271.097 102.637 269.007 103.539C266.964 104.441 264.566 104.893 261.811 104.893Z" fill="white"/>
<path d="M292.898 104.893C290.238 104.893 288.196 104.228 286.771 102.898C285.346 101.568 284.633 99.7153 284.633 97.3404V71.9758H276.938V69.1259H284.633V60.291L287.768 59.2936V69.1259H298.598V71.9758H287.768V96.2716C287.768 98.2666 288.196 99.7153 289.051 100.618C289.953 101.473 291.426 101.9 293.468 101.9C294.56 101.9 295.487 101.829 296.247 101.687C297.007 101.497 297.79 101.235 298.598 100.903V103.966C297.695 104.299 296.769 104.536 295.819 104.679C294.869 104.821 293.895 104.893 292.898 104.893Z" fill="white"/>
<path d="M315.191 104.893C312.626 104.893 310.37 104.465 308.422 103.61C306.475 102.708 304.955 101.473 303.863 99.9053C302.77 98.2903 302.224 96.4379 302.224 94.3479C302.224 91.118 303.483 88.5293 306 86.5818C308.517 84.5869 311.866 83.5894 316.046 83.5894C320.226 83.5894 323.931 84.6106 327.161 86.6531V80.8107C327.161 77.5807 326.282 75.182 324.525 73.6145C322.767 71.9996 320.25 71.1921 316.972 71.1921C315.357 71.1921 313.671 71.4533 311.914 71.9758C310.156 72.4983 308.137 73.3533 305.857 74.5408L304.504 71.7621C306.736 70.6221 308.874 69.7909 310.916 69.2684C312.959 68.6984 315.001 68.4134 317.044 68.4134C321.271 68.4134 324.525 69.4346 326.805 71.4771C329.132 73.4721 330.296 76.3932 330.296 80.2407V104.18H327.161V100.262C325.546 101.734 323.741 102.874 321.746 103.681C319.751 104.489 317.566 104.893 315.191 104.893ZM305.359 94.2767C305.359 96.5566 306.309 98.4328 308.209 99.9053C310.109 101.378 312.507 102.114 315.405 102.114C317.922 102.114 320.131 101.687 322.031 100.832C323.931 99.9291 325.641 98.6703 327.161 97.0554V89.788C325.593 88.6005 323.883 87.7218 322.031 87.1518C320.178 86.5818 318.065 86.2968 315.69 86.2968C312.602 86.2968 310.109 87.0331 308.209 88.5055C306.309 89.978 305.359 91.9017 305.359 94.2767Z" fill="white"/>
<path d="M339.853 104.18V69.1259H342.988V74.042C345.838 70.2896 349.709 68.4134 354.602 68.4134C357.262 68.4134 359.589 68.9834 361.584 70.1234C363.626 71.2158 365.194 72.7833 366.286 74.8258C367.426 76.8207 367.996 79.1482 367.996 81.8082V104.18H364.861V82.6631C364.861 79.1482 363.888 76.3932 361.94 74.3983C359.993 72.3558 357.309 71.3346 353.889 71.3346C351.514 71.3346 349.377 71.9046 347.477 73.0446C345.577 74.137 344.081 75.7283 342.988 77.8182V104.18H339.853Z" fill="white"/>
<path d="M388.499 104.893C385.839 104.893 383.797 104.228 382.372 102.898C380.947 101.568 380.234 99.7153 380.234 97.3404V71.9758H372.54V69.1259H380.234V60.291L383.369 59.2936V69.1259H394.199V71.9758H383.369V96.2716C383.369 98.2666 383.797 99.7153 384.652 100.618C385.554 101.473 387.027 101.9 389.069 101.9C390.162 101.9 391.088 101.829 391.848 101.687C392.608 101.497 393.392 101.235 394.199 100.903V103.966C393.297 104.299 392.37 104.536 391.42 104.679C390.47 104.821 389.497 104.893 388.499 104.893Z" fill="white"/>
</svg>
